#define abort_width 48
#define abort_height 32
static unsigned char abort_bits[] = {
   0x00, 0x00, 0x00, 0x00, 0x00, 0x00, 0x00, 0x00, 0x00, 0x00, 0x00, 0x00,
   0x80, 0xff, 0x03, 0x00, 0x00, 0x00, 0xc0, 0x00, 0x06, 0x00, 0x00, 0x00,
   0x20, 0x00, 0x08, 0x00, 0x00, 0x00, 0x10, 0xfe, 0x10, 0x00, 0x00, 0x00,
   0x08, 0x11, 0x21, 0x00, 0x00, 0x00, 0x84, 0x10, 0x42, 0x00, 0x00, 0x00,
   0xc8, 0x10, 0x26, 0x00, 0x00, 0x00, 0x30, 0x11, 0x19, 0x00, 0x00, 0x00,
   0x20, 0x11, 0x09, 0x00, 0x00, 0x00, 0x40, 0x11, 0x05, 0x00, 0x00, 0x00,
   0x80, 0x92, 0x02, 0x00, 0x00, 0x00, 0x00, 0x93, 0x01, 0x00, 0x00, 0x00,
   0x00, 0x7c, 0x00, 0x00, 0x00, 0x00, 0x00, 0x38, 0x00, 0x00, 0x00, 0x00,
   0x00, 0xfe, 0x00, 0x00, 0x00, 0x00, 0x00, 0x38, 0x9c, 0x00, 0x00, 0x00,
   0x00, 0x38, 0xa2, 0x00, 0x00, 0x02, 0x00, 0x38, 0xa2, 0x00, 0x00, 0x02,
   0x00, 0x28, 0xa2, 0xc7, 0x53, 0x0f, 0x00, 0x28, 0xbe, 0x28, 0x34, 0x02,
   0x00, 0x28, 0xa2, 0x28, 0x14, 0x02, 0x00, 0x00, 0xa2, 0x28, 0x14, 0x02,
   0x00, 0x00, 0xa2, 0x28, 0x14, 0x02, 0x00, 0x00, 0xa2, 0xc7, 0x13, 0x0e,
   0x00, 0x00, 0x00, 0x00, 0x00, 0x00, 0x00, 0x00, 0x00, 0x00, 0x00, 0x00,
   0x00, 0x00, 0x00, 0x00, 0x00, 0x00, 0x00, 0x00, 0x00, 0x00, 0x00, 0x00,
   0x00, 0x00, 0x00, 0x00, 0x00, 0x00, 0x00, 0x00, 0x00, 0x00, 0x00, 0x00};
