#define bind_width 60
#define bind_height 32
static unsigned char bind_bits[] = {
   0x00, 0x00, 0x00, 0x00, 0x00, 0x40, 0x40, 0x00, 0xf8, 0xff, 0xff, 0xff,
   0xff, 0xff, 0x41, 0x00, 0x48, 0x92, 0x24, 0x49, 0x92, 0x04, 0x41, 0x00,
   0x48, 0x92, 0x24, 0x49, 0x92, 0x04, 0x41, 0x00, 0xf8, 0xff, 0xff, 0xff,
   0xff, 0xff, 0x41, 0x00, 0x88, 0x24, 0x49, 0x92, 0x24, 0x09, 0xf9, 0x03,
   0x88, 0x24, 0x49, 0x92, 0x24, 0x09, 0xa9, 0x02, 0xf8, 0xff, 0xff, 0xff,
   0xff, 0x1f, 0xa9, 0x02, 0x08, 0x49, 0x92, 0x24, 0x49, 0x12, 0xa9, 0x02,
   0x08, 0x49, 0x92, 0x24, 0x49, 0x12, 0xf9, 0x03, 0xf8, 0xff, 0xff, 0xff,
   0xff, 0xff, 0x09, 0x02, 0x48, 0x92, 0x24, 0x49, 0x92, 0x00, 0x09, 0x02,
   0x48, 0x92, 0x24, 0x49, 0x92, 0x00, 0x09, 0x02, 0xf8, 0xff, 0xff, 0xff,
   0xff, 0xff, 0x09, 0x02, 0x48, 0x04, 0x00, 0x00, 0x20, 0x22, 0x09, 0x02,
   0x48, 0x04, 0x00, 0x00, 0x20, 0x22, 0x09, 0x02, 0xf8, 0xff, 0xff, 0xff,
   0xff, 0xff, 0xf1, 0x01, 0x00, 0x00, 0x00, 0x00, 0x00, 0x00, 0x00, 0x00,
   0x00, 0x0f, 0x01, 0x30, 0x01, 0x00, 0x00, 0x00, 0x00, 0x11, 0x00, 0x20,
   0x00, 0x00, 0x00, 0x00, 0x00, 0x91, 0x69, 0xa0, 0x69, 0x3c, 0x07, 0x00,
   0x00, 0x11, 0x99, 0x3c, 0x99, 0xa2, 0x00, 0x00, 0x00, 0x1f, 0x89, 0x22,
   0x89, 0xa2, 0x00, 0x00, 0x00, 0x21, 0x89, 0x22, 0x89, 0xa2, 0x01, 0x00,
   0x00, 0x21, 0x89, 0x22, 0x89, 0x22, 0x06, 0x00, 0x00, 0x21, 0x89, 0x22,
   0x89, 0x22, 0x04, 0x00, 0x00, 0x21, 0x89, 0x22, 0x89, 0x3c, 0x04, 0x00,
   0x00, 0x9f, 0x8b, 0xbc, 0x8b, 0xa0, 0x03, 0x00, 0x00, 0x00, 0x00, 0x00,
   0x00, 0x20, 0x00, 0x00, 0x00, 0x00, 0x00, 0x00, 0x00, 0x24, 0x00, 0x00,
   0x00, 0x00, 0x00, 0x00, 0x00, 0x18, 0x00, 0x00, 0x00, 0x00, 0x00, 0x00,
   0x00, 0x00, 0x00, 0x00};
