#define commit_width 73
#define commit_height 40
static unsigned char commit_bits[] = {
   0x00, 0x00, 0x00, 0x00, 0x00, 0x00, 0x00, 0x00, 0x00, 0x00, 0x00, 0x00,
   0x00, 0x00, 0x00, 0x00, 0x1c, 0x00, 0x00, 0x00, 0x00, 0x00, 0x00, 0x00,
   0x00, 0x00, 0x2b, 0x00, 0x00, 0x00, 0x00, 0x00, 0x00, 0x00, 0x00, 0x80,
   0x51, 0x00, 0x00, 0x00, 0x00, 0x00, 0x00, 0x00, 0x00, 0xc0, 0xa0, 0x00,
   0x00, 0x00, 0x00, 0x00, 0x00, 0x00, 0x00, 0x60, 0xc0, 0x00, 0x00, 0x00,
   0x00, 0x00, 0x00, 0x00, 0x00, 0x20, 0x80, 0x00, 0x00, 0x00, 0x00, 0x00,
   0x00, 0x00, 0x00, 0x10, 0xc0, 0x00, 0x00, 0x00, 0xf8, 0x00, 0x00, 0x00,
   0x09, 0x10, 0xe0, 0x00, 0x00, 0x00, 0x8c, 0x00, 0x00, 0x00, 0x09, 0x10,
   0xf0, 0x00, 0x00, 0x00, 0x04, 0x00, 0x00, 0x00, 0x08, 0x20, 0x78, 0x01,
   0x00, 0x00, 0x04, 0x1c, 0x1b, 0x9b, 0x7d, 0x40, 0x3c, 0x7f, 0x00, 0x00,
   0x04, 0xa2, 0xaa, 0x2a, 0x09, 0x80, 0x9f, 0xa9, 0x00, 0x00, 0x04, 0xa2,
   0xa4, 0x24, 0x09, 0x00, 0xe8, 0x44, 0x01, 0x00, 0x04, 0xa2, 0xa4, 0x24,
   0x09, 0x00, 0x64, 0x82, 0x02, 0x00, 0x04, 0xa2, 0xa4, 0x24, 0x09, 0x00,
   0x72, 0x01, 0x03, 0x00, 0x04, 0xa2, 0xa4, 0x24, 0x09, 0x00, 0xd9, 0x00,
   0x02, 0x00, 0x04, 0xa2, 0xa4, 0x24, 0x09, 0x80, 0x4c, 0x00, 0x01, 0x00,
   0x8c, 0xa2, 0xa4, 0x24, 0x89, 0x40, 0x46, 0x80, 0x01, 0x00, 0xf8, 0x9c,
   0xa4, 0xa4, 0x73, 0x20, 0x43, 0xc0, 0x00, 0x00, 0x00, 0x00, 0x00, 0x00,
   0x00, 0x90, 0x81, 0x60, 0x00, 0x00, 0x00, 0x00, 0x00, 0x00, 0x00, 0xc8,
   0x00, 0x31, 0x00, 0x00, 0x00, 0x00, 0x00, 0x00, 0x00, 0x64, 0x00, 0x0e,
   0x00, 0x00, 0x00, 0x00, 0x00, 0x00, 0x00, 0x32, 0x00, 0x00, 0x00, 0x00,
   0x00, 0x00, 0x00, 0x00, 0x00, 0x19, 0x00, 0x00, 0x00, 0x00, 0x00, 0x00,
   0x00, 0x00, 0xf0, 0x0c, 0x00, 0x00, 0x00, 0x00, 0x00, 0x00, 0x00, 0x00,
   0x08, 0x06, 0x00, 0x00, 0x00, 0x00, 0x00, 0x00, 0x00, 0x00, 0x04, 0x03,
   0x00, 0x00, 0x00, 0x00, 0x00, 0x00, 0x00, 0x00, 0x06, 0x03, 0x00, 0xe0,
   0x7f, 0x00, 0x00, 0x00, 0x00, 0x00, 0x09, 0x03, 0x00, 0x20, 0x40, 0x00,
   0x00, 0x00, 0x00, 0x80, 0x10, 0x03, 0x00, 0xa0, 0x5f, 0x00, 0x00, 0x00,
   0x00, 0x40, 0xa0, 0x01, 0x00, 0xa0, 0x5f, 0x00, 0x00, 0x00, 0x00, 0x20,
   0xc0, 0x00, 0x00, 0xa0, 0x5f, 0x00, 0x00, 0x00, 0x00, 0x10, 0x60, 0x00,
   0x00, 0xa0, 0x5f, 0x00, 0x00, 0x00, 0x00, 0x20, 0x30, 0x00, 0x00, 0xa0,
   0x5f, 0x00, 0x00, 0x00, 0x00, 0x40, 0x18, 0x00, 0x00, 0xa0, 0x5f, 0x00,
   0x00, 0x00, 0x00, 0x80, 0x0c, 0x00, 0x00, 0x20, 0x40, 0x00, 0x00, 0x00,
   0x00, 0x00, 0x07, 0x00, 0x00, 0xe0, 0x7f, 0x00, 0x00, 0x00, 0x00, 0x00,
   0x02, 0x00, 0x00, 0x00, 0x00, 0x00, 0x00, 0x00, 0x00, 0x00, 0x00, 0x00,
   0x00, 0x00, 0x00, 0x00};
