#define compose_width 60
#define compose_height 40
static unsigned char compose_bits[] = {
   0x00, 0x00, 0x00, 0x00, 0x00, 0x00, 0x00, 0x00, 0x00, 0x00, 0x00, 0xff,
   0xff, 0xff, 0xff, 0x00, 0x00, 0x00, 0x80, 0xff, 0xff, 0xff, 0xff, 0x00,
   0x00, 0x00, 0xc0, 0x00, 0x00, 0x00, 0xc0, 0x00, 0x00, 0x00, 0xc0, 0x3c,
   0x00, 0x00, 0xc0, 0x00, 0x00, 0x00, 0xc0, 0x42, 0x00, 0x00, 0x60, 0x00,
   0xfc, 0xff, 0x7f, 0x42, 0x8e, 0x0d, 0x60, 0x00, 0x1c, 0x00, 0x60, 0x42,
   0x51, 0x12, 0x20, 0x00, 0x34, 0x00, 0x60, 0x42, 0x51, 0x12, 0x20, 0x00,
   0x24, 0x00, 0x60, 0x02, 0x51, 0x12, 0x30, 0x00, 0x44, 0x00, 0x30, 0x02,
   0x51, 0xd2, 0x31, 0x00, 0x84, 0x00, 0x30, 0x42, 0x51, 0x12, 0x18, 0x00,
   0x04, 0x01, 0x30, 0x42, 0x51, 0x12, 0x18, 0x00, 0x04, 0x02, 0x30, 0x3c,
   0x4e, 0x12, 0x18, 0x00, 0x04, 0x04, 0x30, 0x00, 0x00, 0x00, 0x18, 0x00,
   0x04, 0x08, 0x38, 0x00, 0x00, 0x00, 0x18, 0x00, 0x04, 0x18, 0x34, 0x1a,
   0xc7, 0x18, 0x18, 0x00, 0x04, 0x24, 0x32, 0xa6, 0x28, 0x25, 0x18, 0x00,
   0x04, 0x42, 0x31, 0xa2, 0x28, 0x24, 0x38, 0x00, 0x04, 0x81, 0x30, 0xa2,
   0xc8, 0x3c, 0x30, 0x00, 0x84, 0x00, 0x60, 0xa2, 0x08, 0x05, 0x30, 0x00,
   0x44, 0x00, 0x60, 0xa2, 0x08, 0x05, 0x30, 0x00, 0x24, 0x00, 0x60, 0xa6,
   0x08, 0x25, 0x30, 0x00, 0x14, 0x00, 0x60, 0x1a, 0xe7, 0x18, 0x30, 0x00,
   0x0c, 0x00, 0x60, 0x02, 0x00, 0x00, 0x30, 0x00, 0xfc, 0xff, 0x7f, 0x02,
   0x00, 0x00, 0x30, 0x00, 0x00, 0x00, 0x60, 0x02, 0x00, 0x1c, 0x30, 0x00,
   0x00, 0x00, 0x60, 0x02, 0x00, 0x24, 0x30, 0x00, 0x00, 0x00, 0x60, 0x00,
   0x00, 0x4c, 0x30, 0x00, 0x00, 0x00, 0x60, 0xe0, 0x0f, 0x98, 0x30, 0x00,
   0x00, 0x00, 0x30, 0x00, 0x00, 0x30, 0x31, 0x00, 0x00, 0x00, 0x30, 0x00,
   0x00, 0x60, 0x1a, 0x00, 0x00, 0x00, 0x30, 0x00, 0x00, 0xc0, 0x1c, 0x00,
   0x00, 0x00, 0x18, 0x00, 0x00, 0x80, 0x19, 0x00, 0x00, 0x00, 0x18, 0x00,
   0x00, 0x00, 0x13, 0x00, 0x00, 0x00, 0x0c, 0x00, 0x00, 0x00, 0x26, 0x00,
   0x00, 0x00, 0x0c, 0x00, 0x00, 0x00, 0x4c, 0x00, 0x00, 0x00, 0xfc, 0xff,
   0xff, 0xff, 0x7f, 0x00, 0x00, 0x00, 0xfc, 0xff, 0xff, 0xff, 0x3f, 0x00,
   0x00, 0x00, 0x00, 0x00, 0x00, 0x00, 0x00, 0x00};
