#define delete_width 55
#define delete_height 40
static unsigned char delete_bits[] = {
   0x00, 0x00, 0x00, 0x00, 0x00, 0x00, 0x00, 0xfe, 0x03, 0x00, 0x00, 0x00,
   0x00, 0x00, 0x02, 0x42, 0x00, 0x00, 0x00, 0x00, 0x00, 0xfa, 0x42, 0x00,
   0x00, 0x00, 0x00, 0x00, 0xfa, 0x42, 0x00, 0xc0, 0x0f, 0xc0, 0x01, 0xfa,
   0x42, 0x00, 0xc0, 0x18, 0x80, 0x01, 0xfa, 0x42, 0x00, 0xc0, 0x10, 0x9f,
   0x01, 0xfa, 0x42, 0x00, 0xc0, 0xb0, 0x91, 0x01, 0x02, 0xc2, 0xff, 0xcf,
   0xb0, 0x91, 0x01, 0xfe, 0x43, 0x00, 0xcc, 0xb0, 0x8f, 0x1d, 0x00, 0x40,
   0x00, 0xca, 0xb0, 0x81, 0x01, 0x00, 0x40, 0x04, 0xc9, 0x90, 0x81, 0x01,
   0x00, 0x40, 0x86, 0xc8, 0x18, 0x93, 0x01, 0xe0, 0x7f, 0x47, 0xc8, 0x0f,
   0xce, 0x03, 0x60, 0xc0, 0x25, 0x08, 0x00, 0x00, 0x00, 0xa0, 0xc0, 0x14,
   0x08, 0x00, 0x00, 0x00, 0x20, 0x41, 0x0c, 0x08, 0x00, 0x02, 0x00, 0x20,
   0x02, 0x14, 0x08, 0x00, 0x03, 0x00, 0x20, 0x04, 0x24, 0x08, 0x00, 0x03,
   0x00, 0x20, 0x08, 0x44, 0x08, 0xbe, 0x8f, 0x0f, 0x20, 0x10, 0x84, 0x08,
   0x23, 0xc3, 0x08, 0x20, 0x20, 0x04, 0x09, 0x23, 0xc3, 0x08, 0x20, 0x50,
   0x04, 0x0a, 0x1f, 0xc3, 0x07, 0x20, 0x88, 0x06, 0x0c, 0x03, 0xc3, 0x00,
   0x20, 0x04, 0xfd, 0x0f, 0x03, 0xc3, 0x00, 0x20, 0x02, 0x04, 0x00, 0x26,
   0x93, 0x09, 0x20, 0x01, 0x04, 0x00, 0x1c, 0x0f, 0x07, 0xa0, 0x00, 0x04,
   0x00, 0x00, 0x00, 0x00, 0x60, 0x00, 0x04, 0x00, 0x00, 0x00, 0x00, 0xe0,
   0xff, 0x07, 0x00, 0x00, 0x00, 0x00, 0x00, 0x00, 0x04, 0x00, 0x00, 0x00,
   0x00, 0x00, 0x00, 0x04, 0x00, 0x00, 0x00, 0x00, 0x00, 0x00, 0x04, 0x00,
   0x00, 0x00, 0x00, 0x00, 0x60, 0xc4, 0x00, 0x00, 0x00, 0x00, 0x00, 0xc0,
   0x75, 0x00, 0x00, 0x00, 0x00, 0x00, 0x80, 0x3f, 0x00, 0x00, 0x00, 0x00,
   0x00, 0x00, 0x1f, 0x00, 0x00, 0x00, 0x00, 0x00, 0x00, 0x0e, 0x00, 0x00,
   0x00, 0x00, 0x00, 0x00, 0x04, 0x00, 0x00, 0x00, 0x00, 0x00, 0x00, 0x00,
   0x00, 0x00, 0x00, 0x00};
