#define forward_width 70
#define forward_height 40
static unsigned char forward_bits[] = {
   0x00, 0x00, 0x00, 0x00, 0x00, 0x01, 0x00, 0x00, 0x00, 0x00, 0x00, 0x00,
   0x00, 0x80, 0x03, 0x00, 0x00, 0x00, 0x00, 0x00, 0x00, 0x00, 0x40, 0x05,
   0x00, 0x00, 0x00, 0x00, 0x00, 0x00, 0x00, 0x20, 0x09, 0x00, 0x00, 0x00,
   0x00, 0x00, 0x00, 0x00, 0x10, 0x11, 0x02, 0x00, 0x00, 0x00, 0x00, 0x00,
   0x00, 0x08, 0x21, 0x05, 0x00, 0x00, 0x00, 0x00, 0x00, 0x00, 0x04, 0xc1,
   0x08, 0x00, 0x00, 0x00, 0x00, 0x00, 0x00, 0x02, 0x81, 0x10, 0x00, 0x00,
   0x00, 0x00, 0x00, 0x00, 0x01, 0x01, 0x21, 0x00, 0x00, 0x80, 0x0f, 0x00,
   0x80, 0xff, 0x01, 0x42, 0x00, 0x00, 0x80, 0x00, 0x00, 0x00, 0x01, 0x01,
   0x84, 0x00, 0x00, 0x80, 0xc0, 0xd9, 0x00, 0x02, 0x01, 0x08, 0x01, 0x00,
   0x80, 0x20, 0x32, 0x00, 0x04, 0x01, 0x10, 0x02, 0x00, 0x80, 0x27, 0x12,
   0x00, 0x08, 0x01, 0x20, 0x04, 0x00, 0x80, 0x20, 0x12, 0x0f, 0x10, 0x01,
   0x40, 0x08, 0x00, 0x80, 0x20, 0x12, 0x00, 0x20, 0xff, 0xff, 0x10, 0x00,
   0x80, 0x20, 0x12, 0x00, 0x60, 0x40, 0x40, 0x20, 0x00, 0x80, 0x20, 0x12,
   0x00, 0x90, 0x40, 0x20, 0x40, 0x00, 0x80, 0xc0, 0x11, 0x00, 0x08, 0x41,
   0x10, 0x80, 0x00, 0x00, 0x00, 0x00, 0x00, 0x4c, 0x42, 0x48, 0x92, 0x01,
   0x00, 0x00, 0x00, 0x00, 0x14, 0x44, 0x04, 0x40, 0x01, 0x00, 0x00, 0x00,
   0x03, 0x24, 0x48, 0x02, 0x20, 0x01, 0x00, 0x00, 0x00, 0x02, 0x44, 0x50,
   0x01, 0x10, 0x01, 0x04, 0x39, 0x1b, 0x02, 0x84, 0xe0, 0x00, 0x08, 0x01,
   0x04, 0x45, 0xc6, 0x03, 0x04, 0x41, 0x00, 0x04, 0x01, 0x24, 0x41, 0x22,
   0x02, 0x04, 0x02, 0x00, 0x02, 0x01, 0x24, 0x79, 0x22, 0x02, 0x04, 0x04,
   0x00, 0x01, 0x01, 0x24, 0x45, 0x22, 0x02, 0x04, 0xf8, 0xff, 0x00, 0x01,
   0x24, 0x45, 0x22, 0x02, 0x04, 0x04, 0x00, 0x01, 0x01, 0xfc, 0x45, 0x22,
   0x02, 0x04, 0x02, 0x00, 0x02, 0x01, 0xd8, 0x38, 0xc2, 0x07, 0x04, 0x01,
   0x00, 0x04, 0x01, 0x00, 0x00, 0x00, 0x00, 0x84, 0x00, 0x00, 0x08, 0x01,
   0x00, 0x00, 0x00, 0x00, 0x44, 0x00, 0x00, 0x10, 0x01, 0x00, 0x00, 0x00,
   0x00, 0x24, 0x00, 0x00, 0x20, 0x01, 0x00, 0x00, 0x00, 0x00, 0x14, 0x00,
   0x00, 0x40, 0x01, 0x00, 0x00, 0x00, 0x00, 0x0c, 0x00, 0x00, 0x80, 0x01,
   0x00, 0x00, 0x00, 0x00, 0xfc, 0xff, 0xff, 0xff, 0x01, 0x00, 0x00, 0x00,
   0x00, 0x00, 0x00, 0x00, 0x00, 0x00, 0x00, 0x00, 0x00, 0x00, 0x00, 0x00,
   0x00, 0x00, 0x00, 0x00, 0x00, 0x00, 0x00, 0x00, 0x00, 0x00, 0x00, 0x00};
