#define getmail_width 50
#define getmail_height 40
static unsigned char getmail_bits[] = {
   0x00, 0x00, 0x00, 0x00, 0x00, 0x00, 0x00, 0x80, 0xff, 0xff, 0xff, 0x7f,
   0x00, 0x00, 0x80, 0x00, 0x00, 0x00, 0x40, 0x00, 0x00, 0x80, 0x00, 0x00,
   0x00, 0x40, 0x00, 0x00, 0x80, 0xfc, 0xff, 0xff, 0x4f, 0x00, 0x00, 0x80,
   0x04, 0x41, 0x10, 0x48, 0x00, 0x00, 0x80, 0x84, 0x80, 0x20, 0x48, 0x00,
   0x00, 0x80, 0x44, 0x22, 0x41, 0x48, 0x00, 0x00, 0x80, 0x24, 0x44, 0x82,
   0x48, 0x00, 0x00, 0x80, 0x7c, 0x08, 0x00, 0x4f, 0x00, 0x00, 0x80, 0x80,
   0x10, 0x00, 0x42, 0x00, 0x00, 0x80, 0x00, 0x21, 0x80, 0x44, 0x00, 0x00,
   0x80, 0xff, 0x42, 0x40, 0x79, 0x00, 0x00, 0x00, 0x00, 0x04, 0x20, 0x12,
   0x00, 0x00, 0x00, 0x00, 0x08, 0x10, 0x09, 0x00, 0x00, 0x00, 0x00, 0x10,
   0xa0, 0x04, 0x00, 0x00, 0x00, 0x00, 0x20, 0x40, 0x02, 0x00, 0x00, 0x00,
   0x00, 0x40, 0x00, 0x01, 0x00, 0x00, 0x00, 0x00, 0x80, 0x80, 0x00, 0x00,
   0x00, 0x00, 0x00, 0x00, 0x41, 0x00, 0x00, 0x00, 0x00, 0x00, 0x00, 0x22,
   0x00, 0x00, 0x00, 0x00, 0x00, 0x00, 0x14, 0x00, 0x00, 0x00, 0x00, 0x00,
   0x00, 0x08, 0x00, 0x00, 0x00, 0x00, 0x00, 0x00, 0x00, 0x00, 0x00, 0x00,
   0x00, 0x00, 0x00, 0x00, 0x00, 0x00, 0x00, 0xe0, 0x00, 0x00, 0x00, 0x00,
   0x00, 0x00, 0x10, 0x01, 0x02, 0xc6, 0x00, 0x19, 0x00, 0x10, 0x00, 0x02,
   0xc6, 0x00, 0x10, 0x00, 0x10, 0x38, 0x0f, 0xaa, 0x9c, 0x11, 0x00, 0x10,
   0x44, 0x02, 0xba, 0x22, 0x11, 0x00, 0x10, 0x44, 0x02, 0x92, 0x20, 0x11,
   0x00, 0xd0, 0x25, 0x02, 0x82, 0x3c, 0x11, 0x00, 0x10, 0x1d, 0x02, 0x82,
   0x22, 0x11, 0x00, 0x10, 0x05, 0x02, 0x82, 0x22, 0x11, 0x00, 0x10, 0x05,
   0x12, 0x82, 0x22, 0x11, 0x00, 0x10, 0x45, 0x12, 0x82, 0x22, 0x11, 0x00,
   0xe0, 0x38, 0x0c, 0x82, 0x9c, 0x3b, 0x00, 0x00, 0x00, 0x00, 0x00, 0x00,
   0x00, 0x00, 0x00, 0x00, 0x00, 0x00, 0x00, 0x00, 0x00, 0x00, 0x00, 0x00,
   0x00, 0x00, 0x00, 0x00};
