#define link_width 64
#define link_height 40
static unsigned char link_bits[] = {
   0x00, 0x00, 0x00, 0x00, 0x00, 0x00, 0x00, 0x00, 0xfe, 0x03, 0x00, 0x00,
   0x00, 0x00, 0x00, 0x00, 0x02, 0x02, 0x00, 0x30, 0x30, 0x00, 0x06, 0x00,
   0xfa, 0x02, 0x00, 0x30, 0x30, 0x00, 0x06, 0x00, 0xfa, 0x02, 0x00, 0x30,
   0x00, 0x00, 0x06, 0x00, 0xfa, 0x02, 0x00, 0x30, 0x38, 0x76, 0x66, 0x00,
   0xfa, 0x02, 0x00, 0x30, 0x30, 0xce, 0x36, 0x00, 0xfa, 0x02, 0x00, 0x30,
   0x30, 0xc6, 0x1e, 0x00, 0x02, 0x02, 0x00, 0x30, 0x30, 0xc6, 0x1e, 0x00,
   0xfe, 0x03, 0x00, 0x30, 0x30, 0xc6, 0x36, 0x00, 0x00, 0x00, 0x00, 0xf0,
   0x33, 0xc6, 0x66, 0x00, 0x00, 0x00, 0x00, 0xf0, 0x7b, 0xc6, 0xc6, 0x00,
   0x00, 0x00, 0x00, 0x00, 0x00, 0x00, 0x00, 0x00, 0x00, 0x00, 0x10, 0x00,
   0x00, 0x00, 0x00, 0x00, 0x00, 0x00, 0x30, 0xc0, 0x01, 0x00, 0x00, 0x00,
   0x00, 0x00, 0x70, 0xe0, 0x03, 0x00, 0x00, 0x00, 0x00, 0xf0, 0xff, 0x7f,
   0xff, 0xff, 0x0f, 0x00, 0x00, 0x10, 0x70, 0xe0, 0x03, 0x00, 0x08, 0x00,
   0x00, 0x10, 0x30, 0xc0, 0x01, 0x00, 0x08, 0x00, 0x00, 0x10, 0x10, 0x80,
   0x00, 0x00, 0x08, 0x00, 0x00, 0x10, 0x00, 0x80, 0x00, 0x00, 0x08, 0x00,
   0x00, 0x00, 0x00, 0x80, 0x00, 0x00, 0x08, 0x00, 0xf8, 0xff, 0x0f, 0x80,
   0x00, 0x00, 0x08, 0x00, 0x18, 0x00, 0x0c, 0x80, 0x00, 0x00, 0x08, 0x00,
   0x28, 0x00, 0x0a, 0x80, 0x00, 0x00, 0x08, 0x00, 0x48, 0x00, 0x09, 0x80,
   0x00, 0x00, 0x08, 0x00, 0x88, 0x80, 0x08, 0x80, 0x00, 0x00, 0x08, 0x00,
   0x08, 0x41, 0x08, 0x80, 0x00, 0x00, 0x08, 0x00, 0x08, 0x22, 0x08, 0xf0,
   0x07, 0x00, 0x7f, 0x00, 0x08, 0x55, 0x08, 0xe0, 0x03, 0x00, 0x3e, 0x00,
   0x88, 0x88, 0x08, 0xc0, 0x01, 0x00, 0x1c, 0x00, 0x48, 0x00, 0x09, 0x80,
   0x00, 0x00, 0x08, 0x00, 0x28, 0x00, 0x8a, 0x1f, 0xfc, 0xf8, 0xc1, 0x0f,
   0x18, 0x00, 0x8c, 0x10, 0x84, 0x08, 0x41, 0x08, 0xf8, 0xff, 0x8f, 0xf0,
   0x87, 0x08, 0x7f, 0x08, 0x00, 0x00, 0x80, 0x00, 0x80, 0x08, 0x00, 0x08,
   0x00, 0x00, 0x80, 0x00, 0x80, 0x08, 0x00, 0x08, 0x00, 0x00, 0x80, 0xff,
   0xff, 0xf8, 0xff, 0x0f, 0x00, 0x00, 0x00, 0x00, 0x00, 0x00, 0x00, 0x00,
   0x00, 0x00, 0x00, 0x00, 0x00, 0x00, 0x00, 0x00};
