#define move_width 56
#define move_height 40
static unsigned char move_bits[] = {
   0x00, 0x00, 0x00, 0x00, 0x00, 0x00, 0x00, 0xfe, 0x03, 0x00, 0x00, 0x00,
   0x00, 0x00, 0x02, 0x02, 0x00, 0x00, 0x00, 0x00, 0x00, 0xfa, 0x02, 0xf8,
   0xff, 0x3f, 0x00, 0x00, 0xfa, 0x02, 0x18, 0x00, 0x30, 0x00, 0x00, 0xfa,
   0x02, 0x28, 0x00, 0x28, 0x00, 0x00, 0xfa, 0x02, 0x48, 0x00, 0x24, 0x00,
   0x00, 0xfa, 0x02, 0x88, 0x00, 0x22, 0x00, 0x00, 0x02, 0x02, 0x08, 0x01,
   0x21, 0x00, 0x00, 0xfe, 0x03, 0x08, 0x82, 0x20, 0x00, 0x00, 0x00, 0x40,
   0x08, 0xc6, 0x20, 0x00, 0x00, 0x00, 0xc0, 0x08, 0x29, 0x21, 0x00, 0x00,
   0x00, 0xc0, 0x89, 0x10, 0x22, 0x00, 0x00, 0x00, 0xfe, 0x4b, 0x00, 0xa4,
   0x3f, 0x00, 0x00, 0xc2, 0x29, 0x00, 0x28, 0x20, 0x00, 0x00, 0xc2, 0x18,
   0x00, 0x30, 0x20, 0x00, 0x00, 0x42, 0xf8, 0xff, 0x3f, 0x20, 0x00, 0x00,
   0x02, 0x00, 0x00, 0x00, 0x20, 0x00, 0x00, 0x02, 0x00, 0x00, 0x00, 0x20,
   0x00, 0x00, 0x3a, 0x1c, 0x00, 0x00, 0x20, 0x00, 0x00, 0x7a, 0x1e, 0x00,
   0x00, 0x20, 0x00, 0x00, 0xda, 0x9b, 0x4f, 0xc8, 0x23, 0x00, 0x00, 0x9a,
   0xd9, 0xd8, 0x6c, 0x26, 0x00, 0x00, 0x1a, 0xd8, 0xd8, 0xec, 0x27, 0x00,
   0x00, 0x1a, 0xd8, 0x98, 0x64, 0x20, 0x00, 0x00, 0x1a, 0xd8, 0x98, 0x67,
   0x20, 0x00, 0x00, 0x1a, 0xd8, 0x18, 0xc3, 0x24, 0x00, 0x00, 0x1a, 0x98,
   0x0f, 0xc3, 0x23, 0x00, 0x00, 0x02, 0x00, 0x00, 0x00, 0x20, 0x00, 0x00,
   0x02, 0x00, 0x00, 0x00, 0xfc, 0x01, 0x00, 0x02, 0x00, 0x00, 0x00, 0xf8,
   0x00, 0x00, 0x02, 0x00, 0x00, 0x00, 0x70, 0x00, 0x00, 0x02, 0x00, 0x00,
   0x00, 0x20, 0x00, 0x7e, 0xf2, 0x03, 0x00, 0xe0, 0x07, 0x3f, 0x42, 0x10,
   0x02, 0x00, 0x20, 0x04, 0x21, 0xc2, 0x1f, 0x02, 0x00, 0x20, 0xfc, 0x21,
   0x02, 0x00, 0x02, 0x00, 0x20, 0x00, 0x20, 0x02, 0x00, 0x02, 0x00, 0x20,
   0x00, 0x20, 0xfe, 0xff, 0x03, 0x00, 0xe0, 0xff, 0x3f, 0x00, 0x00, 0x00,
   0x00, 0x00, 0x00, 0x00};
