#define new_width 60
#define new_height 40
static unsigned char new_bits[] = {
   0x00, 0x00, 0x00, 0x00, 0x00, 0x00, 0x00, 0x00, 0x00, 0x10, 0x20, 0x20,
   0x20, 0x40, 0x00, 0x00, 0x00, 0x20, 0x20, 0x20, 0x10, 0x20, 0x00, 0x00,
   0x00, 0x40, 0x40, 0x20, 0x10, 0x10, 0x00, 0x00, 0x00, 0x80, 0x40, 0x20,
   0x10, 0x08, 0x00, 0x00, 0x00, 0x00, 0x81, 0x20, 0x08, 0x04, 0x00, 0x00,
   0x00, 0x00, 0x82, 0x20, 0x08, 0x02, 0x00, 0x00, 0xf0, 0xff, 0x04, 0x21,
   0x04, 0xf1, 0xff, 0x00, 0x10, 0x80, 0x00, 0x00, 0x00, 0x10, 0x80, 0x00,
   0x10, 0x80, 0x00, 0x00, 0x00, 0x10, 0x80, 0x00, 0x10, 0x80, 0x60, 0x04,
   0x00, 0x10, 0x80, 0x00, 0x10, 0x80, 0x67, 0xe4, 0xff, 0x1f, 0x80, 0x00,
   0x10, 0x00, 0xa0, 0x04, 0x00, 0x00, 0x80, 0x00, 0x10, 0x00, 0xa0, 0xe4,
   0x84, 0x00, 0x80, 0x00, 0x10, 0x00, 0xa0, 0x14, 0x85, 0x00, 0x80, 0x00,
   0x10, 0x00, 0xa0, 0x14, 0x85, 0x00, 0x80, 0x00, 0x10, 0x00, 0x20, 0xf5,
   0x84, 0x00, 0x80, 0x00, 0x10, 0x00, 0x20, 0x15, 0xa4, 0x00, 0x80, 0x00,
   0x10, 0x00, 0x20, 0x15, 0xb4, 0x00, 0x80, 0x00, 0x10, 0x00, 0x20, 0x16,
   0x6d, 0x00, 0x80, 0x00, 0x10, 0x00, 0x20, 0xe6, 0x24, 0x00, 0x80, 0x00,
   0x10, 0x00, 0x00, 0x00, 0x00, 0x00, 0x80, 0x00, 0xf0, 0xff, 0xff, 0xff,
   0xff, 0xff, 0xff, 0x00, 0x00, 0x00, 0x00, 0x00, 0x00, 0x00, 0x00, 0x00,
   0x00, 0x00, 0x00, 0x00, 0x00, 0x00, 0x00, 0x00, 0x00, 0x00, 0x00, 0x00,
   0x00, 0x00, 0x00, 0x00, 0x0c, 0x03, 0x60, 0xf8, 0x83, 0xc1, 0x00, 0x00,
   0x0c, 0x03, 0x44, 0x08, 0x00, 0x81, 0x00, 0x00, 0x94, 0x02, 0x40, 0x08,
   0x00, 0x81, 0x00, 0x00, 0x64, 0x72, 0x46, 0x08, 0x1c, 0xb1, 0x4c, 0x03,
   0x64, 0x8a, 0x44, 0x78, 0x22, 0xc9, 0xd2, 0x00, 0x04, 0x82, 0x44, 0x08,
   0x22, 0x89, 0x52, 0x00, 0x04, 0xf2, 0x44, 0x08, 0x22, 0x89, 0x4e, 0x00,
   0x04, 0x8a, 0x44, 0x08, 0x22, 0x89, 0x42, 0x00, 0x04, 0x8a, 0x44, 0x08,
   0x22, 0x89, 0x42, 0x00, 0x04, 0x8a, 0x44, 0x08, 0x22, 0x89, 0x52, 0x00,
   0x04, 0x72, 0xee, 0x08, 0x9c, 0xf3, 0x4c, 0x00, 0x00, 0x00, 0x00, 0x00,
   0x00, 0x00, 0x00, 0x00, 0x00, 0x00, 0x00, 0x00, 0x00, 0x00, 0x00, 0x00,
   0x00, 0x00, 0x00, 0x00, 0x00, 0x00, 0x00, 0x00};
