#define pref_width 60
#define pref_height 32
static unsigned char pref_bits[] = {
   0x00, 0x00, 0x00, 0x00, 0x00, 0x00, 0x00, 0x00, 0x00, 0x00, 0x00, 0x00,
   0x00, 0x00, 0x00, 0x00, 0x00, 0x00, 0x00, 0x00, 0x00, 0x00, 0x00, 0x00,
   0xf0, 0xff, 0xff, 0xff, 0x00, 0x00, 0x00, 0x00, 0x08, 0x00, 0x00, 0x00,
   0x01, 0x00, 0x00, 0x00, 0xec, 0xff, 0xff, 0x7f, 0x01, 0x00, 0x1e, 0x00,
   0x04, 0x00, 0x00, 0x00, 0xff, 0xff, 0xf1, 0x03, 0x04, 0x00, 0x00, 0x00,
   0x01, 0x00, 0x01, 0x02, 0xe4, 0xff, 0xff, 0x7f, 0xab, 0xaa, 0x01, 0x02,
   0x04, 0x00, 0x00, 0x00, 0xff, 0xff, 0xf1, 0x03, 0xec, 0xff, 0xff, 0x7f,
   0x01, 0x00, 0x1e, 0x00, 0xa8, 0xaa, 0xaa, 0xaa, 0x01, 0x00, 0x00, 0x00,
   0xf0, 0xff, 0xff, 0xff, 0x00, 0x00, 0x00, 0x00, 0x00, 0x00, 0x00, 0x00,
   0x00, 0x00, 0x00, 0x00, 0x00, 0x00, 0x00, 0x00, 0x00, 0x00, 0x00, 0x00,
   0x00, 0x00, 0x00, 0x00, 0x00, 0x00, 0x00, 0x00, 0x7c, 0x00, 0x00, 0x00,
   0x00, 0x00, 0x00, 0x00, 0xc4, 0x00, 0x00, 0x00, 0x00, 0x00, 0x00, 0x00,
   0x84, 0x00, 0x30, 0x00, 0x00, 0x00, 0x00, 0x00, 0x84, 0x00, 0x48, 0x00,
   0x00, 0x00, 0x00, 0x00, 0x84, 0x00, 0x08, 0x00, 0x00, 0x00, 0x00, 0x00,
   0xc4, 0x9a, 0x09, 0xd3, 0x4c, 0x63, 0x8c, 0x01, 0x7c, 0x46, 0xba, 0x34,
   0xd2, 0x94, 0x52, 0x02, 0x04, 0x42, 0x8a, 0x14, 0x52, 0x14, 0x52, 0x00,
   0x04, 0xc2, 0x89, 0x13, 0x4e, 0x14, 0x8e, 0x01, 0x04, 0x42, 0x88, 0x10,
   0x42, 0x14, 0x02, 0x02, 0x04, 0x42, 0x88, 0x10, 0x42, 0x14, 0x02, 0x02,
   0x04, 0x42, 0x8a, 0x14, 0x52, 0x94, 0x52, 0x02, 0x04, 0x82, 0x09, 0x13,
   0x4c, 0x64, 0x8c, 0x01, 0x00, 0x00, 0x00, 0x00, 0x00, 0x00, 0x00, 0x00,
   0x00, 0x00, 0x00, 0x00, 0x00, 0x00, 0x00, 0x00, 0x00, 0x00, 0x00, 0x00,
   0x00, 0x00, 0x00, 0x00};
