#define quote_width 48
#define quote_height 32
static unsigned char quote_bits[] = {
   0x00, 0x00, 0x00, 0x00, 0x00, 0x00, 0x00, 0x00, 0x00, 0x00, 0x00, 0x00,
   0x70, 0x1c, 0x00, 0x00, 0x00, 0x00, 0x18, 0x06, 0x00, 0x00, 0x00, 0x00,
   0x0c, 0x03, 0x00, 0x00, 0x00, 0x00, 0x0c, 0x03, 0x00, 0x00, 0x00, 0x00,
   0x3c, 0x0f, 0x00, 0x00, 0x00, 0x00, 0x3c, 0x0f, 0x00, 0x00, 0x00, 0x00,
   0x3c, 0x0f, 0x00, 0x00, 0x00, 0x00, 0x3c, 0x0f, 0x00, 0x00, 0x00, 0x00,
   0x00, 0x00, 0x00, 0x00, 0x00, 0x00, 0x00, 0x38, 0x00, 0x20, 0x00, 0x00,
   0x00, 0x44, 0x00, 0x20, 0x00, 0x00, 0x00, 0x44, 0x24, 0x73, 0x0c, 0x00,
   0x00, 0x44, 0xa4, 0x24, 0x12, 0x00, 0x00, 0x44, 0xa4, 0x24, 0x12, 0x00,
   0x00, 0x4c, 0xa4, 0x24, 0x0e, 0x00, 0x00, 0x54, 0xa4, 0x24, 0x02, 0x00,
   0x00, 0x64, 0xa4, 0x24, 0x12, 0x00, 0x00, 0x44, 0x18, 0xe3, 0x0c, 0x00,
   0x00, 0xb8, 0x02, 0x00, 0x00, 0x00, 0x00, 0x00, 0x01, 0x00, 0x00, 0x00,
   0x00, 0x00, 0x00, 0x00, 0xf0, 0x3c, 0x00, 0x00, 0x00, 0x00, 0xf0, 0x3c,
   0x00, 0x00, 0x00, 0x00, 0xf0, 0x3c, 0x00, 0x00, 0x00, 0x00, 0xf0, 0x3c,
   0x00, 0x00, 0x00, 0x00, 0xc0, 0x30, 0x00, 0x00, 0x00, 0x00, 0xc0, 0x30,
   0x00, 0x00, 0x00, 0x00, 0x60, 0x18, 0x00, 0x00, 0x00, 0x00, 0x38, 0x0e,
   0x00, 0x00, 0x00, 0x00, 0x00, 0x00, 0x00, 0x00, 0x00, 0x00, 0x00, 0x00};
