#define scan_width 70
#define scan_height 40
static unsigned char scan_bits[] = {
   0x00, 0x00, 0x00, 0x00, 0x00, 0x00, 0x00, 0x00, 0x00, 0x00, 0x00, 0x00,
   0x00, 0x00, 0x00, 0x00, 0x00, 0x00, 0xf0, 0x00, 0x00, 0x00, 0x00, 0x00,
   0x00, 0x00, 0x00, 0x10, 0x00, 0x00, 0x00, 0xff, 0xff, 0xff, 0x87, 0x03,
   0x10, 0x8c, 0xd3, 0x00, 0x00, 0x00, 0x00, 0x00, 0x00, 0x10, 0x52, 0x34,
   0x01, 0xff, 0xff, 0xff, 0x87, 0x03, 0x60, 0x02, 0x14, 0x01, 0x00, 0x00,
   0x00, 0x00, 0x00, 0x80, 0x82, 0x17, 0x01, 0x00, 0x00, 0x00, 0x80, 0x03,
   0x80, 0x42, 0x14, 0x01, 0xff, 0xff, 0xff, 0x07, 0x00, 0x80, 0x42, 0x14,
   0x01, 0x00, 0x00, 0x00, 0x80, 0x03, 0x80, 0x52, 0x14, 0x01, 0xff, 0xff,
   0xff, 0x07, 0x00, 0x70, 0x8c, 0x17, 0x01, 0x00, 0x00, 0x00, 0x80, 0x03,
   0x00, 0x00, 0x00, 0x00, 0xff, 0xff, 0xff, 0x07, 0x00, 0x00, 0x00, 0x00,
   0x00, 0x00, 0x00, 0x00, 0x80, 0x03, 0x00, 0x00, 0x00, 0x00, 0xff, 0xff,
   0xff, 0x07, 0x00, 0xf0, 0xc1, 0x30, 0x00, 0x03, 0x00, 0x00, 0x86, 0x03,
   0x10, 0x80, 0x20, 0x00, 0x05, 0x00, 0x00, 0x05, 0x00, 0x10, 0x8e, 0x20,
   0x00, 0x09, 0x00, 0x80, 0x84, 0x03, 0x10, 0x91, 0x38, 0x00, 0x11, 0x00,
   0x40, 0x04, 0x00, 0x70, 0x91, 0xa4, 0x03, 0x21, 0x00, 0x20, 0xe4, 0x0f,
   0x10, 0x91, 0x24, 0x00, 0x41, 0x00, 0x10, 0xc4, 0x07, 0x10, 0x91, 0x24,
   0x00, 0x81, 0x00, 0x08, 0x84, 0x03, 0x10, 0x91, 0x24, 0x00, 0x01, 0x01,
   0x04, 0x04, 0x01, 0x10, 0x91, 0x24, 0x00, 0x01, 0x03, 0x06, 0x04, 0x00,
   0x10, 0xce, 0x39, 0x00, 0x81, 0x04, 0x09, 0x04, 0x00, 0x00, 0x00, 0x00,
   0x00, 0x41, 0x88, 0x10, 0x04, 0x00, 0x00, 0x00, 0x00, 0x00, 0x21, 0x50,
   0x20, 0x04, 0x00, 0x00, 0x00, 0x00, 0xff, 0x13, 0x20, 0x40, 0xfe, 0x07,
   0x60, 0x9a, 0x03, 0x01, 0x0a, 0x00, 0x80, 0x02, 0x04, 0x90, 0x46, 0x00,
   0x01, 0x06, 0x00, 0x00, 0x03, 0x04, 0x90, 0x42, 0x00, 0x01, 0xfe, 0xff,
   0xff, 0x03, 0x04, 0x70, 0x42, 0x00, 0x01, 0x00, 0x00, 0x00, 0x00, 0x04,
   0x10, 0x82, 0x01, 0x01, 0x00, 0x00, 0x00, 0x00, 0x04, 0x10, 0x02, 0x02,
   0x01, 0x00, 0x00, 0x00, 0x00, 0x04, 0x90, 0x02, 0x02, 0x01, 0x00, 0x00,
   0x00, 0x00, 0x04, 0x60, 0xc2, 0x01, 0x01, 0x00, 0x00, 0x00, 0x00, 0x04,
   0x00, 0x00, 0x00, 0xff, 0xff, 0xff, 0xff, 0xff, 0x07, 0x00, 0x00, 0x00,
   0x00, 0x00, 0x00, 0x00, 0x00, 0x00, 0x00, 0x00, 0x00, 0x00, 0x00, 0x00,
   0x00, 0x00, 0x00, 0x00, 0x00, 0x00, 0x00, 0x00, 0x00, 0x00, 0x00, 0x00};
