#define search_width 60
#define search_height 40
static unsigned char search_bits[] = {
   0x00, 0x00, 0x00, 0x00, 0x00, 0x00, 0x00, 0x00, 0x00, 0x00, 0x00, 0x00,
   0x00, 0x00, 0x00, 0x00, 0x00, 0x00, 0x00, 0x00, 0x00, 0x00, 0x00, 0x00,
   0x00, 0x00, 0x00, 0xfc, 0x01, 0x00, 0x00, 0x00, 0x00, 0x00, 0x80, 0x07,
   0x0f, 0x00, 0x00, 0x00, 0x00, 0x00, 0xc0, 0x00, 0x18, 0x00, 0x00, 0x00,
   0x80, 0x07, 0x60, 0xfc, 0x31, 0x00, 0x18, 0x00, 0x40, 0x08, 0x30, 0xfe,
   0x63, 0x00, 0x10, 0x00, 0x40, 0x00, 0x10, 0x8e, 0x43, 0x00, 0x10, 0x00,
   0x40, 0xc0, 0x19, 0x06, 0xc3, 0x9a, 0xf3, 0x00, 0x40, 0x20, 0x0a, 0x00,
   0x83, 0x46, 0x14, 0x01, 0x80, 0x27, 0x0a, 0x00, 0x83, 0x42, 0x10, 0x01,
   0x00, 0xe8, 0x09, 0xfe, 0x83, 0x42, 0x10, 0x01, 0x00, 0x28, 0x08, 0xff,
   0x83, 0x42, 0x10, 0x01, 0x00, 0x28, 0x08, 0x87, 0x83, 0x42, 0x10, 0x01,
   0x40, 0x28, 0x0a, 0x03, 0x83, 0x42, 0x14, 0x01, 0x80, 0xc7, 0x09, 0x03,
   0x83, 0x82, 0x13, 0x01, 0x00, 0x00, 0x18, 0x03, 0xc3, 0x00, 0x00, 0x00,
   0x00, 0x00, 0x10, 0x87, 0x43, 0x00, 0x00, 0x00, 0x00, 0x00, 0x30, 0xfe,
   0x63, 0x00, 0x00, 0x00, 0x00, 0x00, 0x70, 0xfc, 0x31, 0x00, 0x00, 0x00,
   0x00, 0x00, 0xd0, 0x00, 0x18, 0x00, 0x00, 0x00, 0x00, 0x00, 0xc8, 0x07,
   0x0f, 0x00, 0x00, 0x00, 0x00, 0x00, 0x64, 0xfc, 0x01, 0x00, 0x00, 0x00,
   0x00, 0x00, 0x32, 0x00, 0x00, 0x00, 0x00, 0x00, 0x00, 0x00, 0x19, 0x00,
   0x00, 0x00, 0x00, 0x00, 0x00, 0x80, 0x0c, 0x00, 0x00, 0x00, 0x00, 0x00,
   0x00, 0x60, 0x06, 0x00, 0x00, 0x00, 0x00, 0x00, 0x00, 0xd0, 0x03, 0x00,
   0x00, 0x00, 0x00, 0x00, 0x00, 0x88, 0x01, 0x00, 0x00, 0x00, 0x00, 0x00,
   0x00, 0x84, 0x01, 0x00, 0x00, 0x00, 0x00, 0x00, 0x00, 0xc2, 0x00, 0x00,
   0x00, 0x00, 0x00, 0x00, 0x00, 0x61, 0x00, 0x00, 0x00, 0x00, 0x00, 0x00,
   0x80, 0x30, 0x00, 0x00, 0x00, 0x00, 0x00, 0x00, 0x40, 0x18, 0x00, 0x00,
   0x00, 0x00, 0x00, 0x00, 0x80, 0x0c, 0x00, 0x00, 0x00, 0x00, 0x00, 0x00,
   0x00, 0x07, 0x00, 0x00, 0x00, 0x00, 0x00, 0x00, 0x00, 0x02, 0x00, 0x00,
   0x00, 0x00, 0x00, 0x00, 0x00, 0x00, 0x00, 0x00, 0x00, 0x00, 0x00, 0x00,
   0x00, 0x00, 0x00, 0x00, 0x00, 0x00, 0x00, 0x00};
