#define send_width 48
#define send_height 32
static unsigned char send_bits[] = {
   0x00, 0x00, 0x00, 0x00, 0x00, 0x00, 0x00, 0x00, 0x00, 0x00, 0x00, 0x00,
   0xfc, 0xff, 0x07, 0x20, 0x00, 0x02, 0x0c, 0x00, 0x06, 0x40, 0x00, 0x01,
   0x14, 0x00, 0x05, 0x80, 0x88, 0x00, 0x24, 0x80, 0x04, 0x00, 0x49, 0x00,
   0x44, 0x40, 0x04, 0x00, 0x2a, 0x00, 0x84, 0x20, 0x04, 0x00, 0x08, 0x00,
   0x04, 0x11, 0x04, 0xf8, 0x88, 0x0f, 0x84, 0x2a, 0x04, 0x00, 0x14, 0x00,
   0x44, 0x44, 0x04, 0x00, 0x55, 0x00, 0x24, 0x80, 0x04, 0x80, 0x94, 0x00,
   0x14, 0x00, 0x05, 0x40, 0x14, 0x01, 0x0c, 0x00, 0x06, 0x20, 0x22, 0x02,
   0xfc, 0xff, 0x07, 0x00, 0x22, 0x00, 0x00, 0x00, 0x00, 0x00, 0x22, 0x00,
   0x00, 0x00, 0x00, 0x01, 0x55, 0x00, 0x78, 0x00, 0x00, 0x01, 0x49, 0x00,
   0x04, 0x00, 0x00, 0x01, 0x55, 0x00, 0x04, 0x4e, 0xe3, 0x01, 0x63, 0x00,
   0x04, 0xd1, 0x14, 0x81, 0xa2, 0x00, 0x38, 0x51, 0x14, 0x81, 0x94, 0x00,
   0x40, 0x4f, 0x14, 0x81, 0x88, 0x00, 0x40, 0x41, 0x14, 0x41, 0x14, 0x01,
   0x40, 0x51, 0x14, 0x41, 0x22, 0x01, 0x3c, 0x4e, 0xe4, 0x41, 0x41, 0x01,
   0x00, 0x00, 0x00, 0xc0, 0x80, 0x01, 0x00, 0x00, 0x00, 0x20, 0x00, 0x02,
   0x00, 0x00, 0x00, 0xfc, 0xff, 0x1f, 0x00, 0x00, 0x00, 0x00, 0x00, 0x00,
   0x00, 0x00, 0x00, 0x00, 0x00, 0x00, 0x00, 0x00, 0x00, 0x00, 0x00, 0x00};
