#define unmark_width 60
#define unmark_height 40
static unsigned char unmark_bits[] = {
   0x00, 0x00, 0x00, 0x00, 0x00, 0x00, 0x00, 0x00, 0x00, 0x00, 0x00, 0x00,
   0x00, 0x00, 0x00, 0x00, 0x00, 0x00, 0x00, 0x00, 0x00, 0x00, 0x00, 0x00,
   0x00, 0x00, 0x00, 0x00, 0x00, 0x00, 0x00, 0x00, 0xf0, 0xff, 0x03, 0x00,
   0xc0, 0xff, 0x0f, 0x00, 0x10, 0x00, 0x02, 0x00, 0x40, 0x00, 0x08, 0x00,
   0xd0, 0xff, 0x02, 0x40, 0x40, 0x00, 0x08, 0x00, 0xd0, 0xff, 0x02, 0xc0,
   0x40, 0x00, 0x08, 0x00, 0xd0, 0xff, 0x02, 0xc0, 0x41, 0x00, 0x08, 0x00,
   0xd0, 0xff, 0x02, 0xc0, 0x43, 0x00, 0x08, 0x00, 0xd0, 0xff, 0xf2, 0xff,
   0x47, 0x00, 0x08, 0x00, 0xd0, 0xff, 0x02, 0xc0, 0x43, 0x00, 0x08, 0x00,
   0xd0, 0xff, 0x02, 0xc0, 0x41, 0x00, 0x08, 0x00, 0xd0, 0xff, 0x02, 0xc0,
   0x40, 0x00, 0x08, 0x00, 0xd0, 0xff, 0x02, 0x40, 0x40, 0x00, 0x08, 0x00,
   0xd0, 0xff, 0x02, 0x00, 0x40, 0x00, 0x08, 0x00, 0x10, 0x00, 0x02, 0x00,
   0x40, 0x00, 0x08, 0x00, 0xf0, 0xff, 0x03, 0x00, 0xc0, 0xff, 0x0f, 0x00,
   0x00, 0x00, 0x00, 0x00, 0x00, 0x00, 0x00, 0x00, 0x00, 0x00, 0x00, 0x00,
   0x00, 0x00, 0x00, 0x00, 0x00, 0x00, 0x00, 0x00, 0x00, 0x00, 0x00, 0x00,
   0x00, 0x42, 0x00, 0x00, 0x00, 0x00, 0x00, 0x00, 0x00, 0x42, 0x00, 0x00,
   0x00, 0x30, 0x00, 0x00, 0x00, 0x42, 0x00, 0x00, 0x00, 0x20, 0x00, 0x00,
   0x00, 0x42, 0x00, 0x00, 0x00, 0x20, 0x00, 0x00, 0x00, 0x42, 0x9d, 0x76,
   0x1c, 0x2d, 0x02, 0x00, 0x00, 0x42, 0xa3, 0x89, 0x22, 0x23, 0x01, 0x00,
   0x00, 0x42, 0xa1, 0x88, 0x20, 0xa1, 0x00, 0x00, 0x00, 0x42, 0xa1, 0x88,
   0x3c, 0x61, 0x00, 0x00, 0x00, 0x42, 0xa1, 0x88, 0x22, 0xa1, 0x00, 0x00,
   0x00, 0x42, 0xa1, 0x88, 0x22, 0x21, 0x01, 0x00, 0x00, 0x42, 0xa1, 0x88,
   0x22, 0x21, 0x02, 0x00, 0x00, 0x7e, 0xa1, 0x88, 0x7c, 0x21, 0x04, 0x00,
   0x00, 0x00, 0x00, 0x00, 0x00, 0x00, 0x00, 0x00, 0x00, 0x00, 0x00, 0x00,
   0x00, 0x00, 0x00, 0x00, 0x00, 0x00, 0x00, 0x00, 0x00, 0x00, 0x00, 0x00,
   0x00, 0x00, 0x00, 0x00, 0x00, 0x00, 0x00, 0x00, 0x00, 0x00, 0x00, 0x00,
   0x00, 0x00, 0x00, 0x00, 0x00, 0x00, 0x00, 0x00, 0x00, 0x00, 0x00, 0x00,
   0x00, 0x00, 0x00, 0x00, 0x00, 0x00, 0x00, 0x00};
